<?xml version="1.0" encoding="UTF-8"?>
<!DOCTYPE svg PUBLIC "-//W3C//DTD SVG 1.1//EN" "http://www.w3.org/Graphics/SVG/1.1/DTD/svg11.dtd">
<!-- Creator: CorelDRAW 2018 (64-Bit Evaluation Version) -->
<svg xmlns="http://www.w3.org/2000/svg" xml:space="preserve" width="739px" height="134px" version="1.1" style="shape-rendering:geometricPrecision; text-rendering:geometricPrecision; image-rendering:optimizeQuality; fill-rule:evenodd; clip-rule:evenodd"
viewBox="0 0 739 134.51"
 xmlns:xlink="http://www.w3.org/1999/xlink">
 <defs>
  <style type="text/css">
   <![CDATA[
    .fil1 {fill:white}
    .fil0 {fill:white;fill-rule:nonzero}
   ]]>
  </style>
 </defs>
 <g id="Layer_x0020_1">
  <metadata id="CorelCorpID_0Corel-Layer"/>
  <g id="_2330328683408">
   <g>
    <path class="fil0" d="M165.12 125.66c0,1.4 -0.26,2.65 -0.78,3.75 -0.52,1.09 -1.24,2.03 -2.16,2.79 -0.92,0.76 -2,1.34 -3.24,1.73 -1.25,0.39 -2.59,0.58 -4.03,0.58 -1,0 -1.94,-0.09 -2.79,-0.26 -0.86,-0.17 -1.63,-0.39 -2.3,-0.63 -0.67,-0.25 -1.24,-0.51 -1.69,-0.77 -0.45,-0.27 -0.78,-0.49 -0.95,-0.68 -0.19,-0.18 -0.31,-0.42 -0.4,-0.7 -0.09,-0.29 -0.13,-0.67 -0.13,-1.14 0,-0.34 0.02,-0.63 0.05,-0.85 0.03,-0.22 0.08,-0.4 0.14,-0.54 0.06,-0.14 0.14,-0.23 0.23,-0.29 0.1,-0.05 0.2,-0.08 0.33,-0.08 0.21,0 0.52,0.14 0.92,0.4 0.38,0.26 0.89,0.54 1.51,0.85 0.62,0.3 1.37,0.6 2.24,0.86 0.87,0.27 1.89,0.41 3.02,0.41 0.87,0 1.67,-0.12 2.38,-0.35 0.73,-0.23 1.34,-0.55 1.86,-0.98 0.52,-0.42 0.91,-0.94 1.19,-1.56 0.28,-0.62 0.42,-1.32 0.42,-2.1 0,-0.85 -0.19,-1.58 -0.58,-2.18 -0.39,-0.6 -0.89,-1.13 -1.52,-1.59 -0.64,-0.45 -1.37,-0.87 -2.17,-1.25 -0.82,-0.38 -1.65,-0.76 -2.49,-1.15 -0.85,-0.4 -1.68,-0.83 -2.48,-1.32 -0.81,-0.47 -1.53,-1.03 -2.16,-1.68 -0.63,-0.65 -1.15,-1.41 -1.53,-2.29 -0.4,-0.87 -0.6,-1.91 -0.6,-3.13 0,-1.26 0.23,-2.37 0.68,-3.35 0.46,-0.97 1.1,-1.8 1.9,-2.46 0.82,-0.67 1.78,-1.17 2.9,-1.52 1.12,-0.35 2.32,-0.52 3.62,-0.52 0.66,0 1.33,0.05 2,0.17 0.67,0.12 1.31,0.27 1.9,0.47 0.59,0.19 1.12,0.41 1.59,0.65 0.46,0.23 0.77,0.43 0.91,0.57 0.15,0.15 0.24,0.26 0.29,0.35 0.05,0.09 0.08,0.2 0.11,0.33 0.03,0.13 0.06,0.29 0.07,0.48 0.02,0.18 0.03,0.42 0.03,0.72 0,0.28 -0.01,0.52 -0.03,0.74 -0.03,0.22 -0.07,0.4 -0.11,0.55 -0.04,0.14 -0.12,0.25 -0.19,0.32 -0.09,0.07 -0.19,0.1 -0.3,0.1 -0.17,0 -0.43,-0.11 -0.8,-0.32 -0.36,-0.22 -0.8,-0.46 -1.33,-0.74 -0.53,-0.26 -1.15,-0.51 -1.87,-0.73 -0.71,-0.23 -1.52,-0.34 -2.42,-0.34 -0.83,0 -1.56,0.11 -2.17,0.33 -0.62,0.23 -1.14,0.52 -1.54,0.89 -0.4,0.38 -0.7,0.81 -0.9,1.32 -0.2,0.51 -0.3,1.05 -0.3,1.62 0,0.83 0.19,1.55 0.58,2.15 0.38,0.6 0.9,1.13 1.54,1.6 0.65,0.47 1.37,0.88 2.2,1.27 0.81,0.39 1.65,0.78 2.5,1.17 0.85,0.4 1.69,0.83 2.5,1.3 0.83,0.47 1.55,1.03 2.2,1.67 0.64,0.64 1.16,1.39 1.55,2.27 0.4,0.87 0.6,1.9 0.6,3.09zm27.26 7.82c0,0.12 -0.03,0.23 -0.09,0.32 -0.07,0.1 -0.17,0.17 -0.33,0.22 -0.16,0.06 -0.36,0.11 -0.62,0.15 -0.26,0.03 -0.56,0.05 -0.94,0.05 -0.41,0 -0.73,-0.02 -0.98,-0.05 -0.25,-0.04 -0.45,-0.09 -0.61,-0.15 -0.15,-0.05 -0.26,-0.12 -0.32,-0.22 -0.06,-0.09 -0.1,-0.2 -0.1,-0.32l0 -13.31 -13.62 0 0 13.31c0,0.12 -0.03,0.23 -0.09,0.32 -0.06,0.1 -0.17,0.17 -0.33,0.22 -0.15,0.06 -0.35,0.11 -0.6,0.15 -0.27,0.03 -0.58,0.05 -0.97,0.05 -0.37,0 -0.69,-0.02 -0.95,-0.05 -0.26,-0.04 -0.47,-0.09 -0.62,-0.15 -0.16,-0.05 -0.26,-0.12 -0.33,-0.22 -0.06,-0.09 -0.09,-0.2 -0.09,-0.32l0 -28.79c0,-0.13 0.03,-0.24 0.09,-0.33 0.07,-0.09 0.17,-0.16 0.33,-0.22 0.15,-0.06 0.36,-0.1 0.62,-0.14 0.26,-0.04 0.58,-0.06 0.95,-0.06 0.39,0 0.7,0.02 0.97,0.06 0.25,0.04 0.45,0.08 0.6,0.14 0.16,0.06 0.27,0.13 0.33,0.22 0.06,0.1 0.09,0.2 0.09,0.33l0 12.02 13.62 0 0 -12.02c0,-0.13 0.04,-0.23 0.1,-0.33 0.06,-0.09 0.17,-0.16 0.32,-0.22 0.16,-0.06 0.36,-0.1 0.61,-0.14 0.25,-0.04 0.57,-0.06 0.98,-0.06 0.38,0 0.68,0.02 0.94,0.06 0.26,0.04 0.46,0.08 0.62,0.14 0.16,0.06 0.26,0.13 0.33,0.22 0.06,0.09 0.09,0.2 0.09,0.33l0 28.79zm30.43 -0.81c0.12,0.34 0.19,0.61 0.2,0.82 0.01,0.21 -0.06,0.37 -0.18,0.48 -0.12,0.1 -0.33,0.17 -0.61,0.2 -0.29,0.03 -0.67,0.05 -1.15,0.05 -0.47,0 -0.86,-0.01 -1.15,-0.03 -0.28,-0.02 -0.5,-0.06 -0.65,-0.12 -0.15,-0.06 -0.25,-0.13 -0.32,-0.22 -0.07,-0.1 -0.14,-0.21 -0.2,-0.35l-2.57 -7.3 -12.46 0 -2.46 7.21c-0.05,0.14 -0.11,0.26 -0.19,0.36 -0.08,0.1 -0.19,0.18 -0.34,0.25 -0.14,0.07 -0.35,0.12 -0.62,0.15 -0.27,0.03 -0.62,0.05 -1.05,0.05 -0.45,0 -0.82,-0.02 -1.1,-0.05 -0.29,-0.04 -0.49,-0.12 -0.6,-0.23 -0.12,-0.11 -0.18,-0.26 -0.17,-0.47 0.01,-0.21 0.07,-0.48 0.2,-0.82l10.05 -27.87c0.06,-0.17 0.15,-0.32 0.25,-0.42 0.1,-0.11 0.24,-0.2 0.44,-0.25 0.19,-0.07 0.43,-0.11 0.74,-0.14 0.3,-0.02 0.68,-0.03 1.15,-0.03 0.49,0 0.9,0.01 1.23,0.03 0.32,0.03 0.58,0.07 0.78,0.14 0.2,0.05 0.35,0.15 0.47,0.26 0.11,0.12 0.19,0.26 0.25,0.43l10.06 27.87zm-12.91 -24.6l-0.02 0 -5.17 14.95 10.43 0 -5.24 -14.95zm37.92 25.41c0,0.12 -0.02,0.23 -0.07,0.32 -0.05,0.1 -0.14,0.18 -0.3,0.24 -0.15,0.05 -0.37,0.1 -0.65,0.13 -0.28,0.03 -0.65,0.05 -1.11,0.05 -0.4,0 -0.73,-0.02 -0.99,-0.05 -0.25,-0.03 -0.46,-0.08 -0.61,-0.15 -0.15,-0.07 -0.27,-0.16 -0.36,-0.29 -0.09,-0.12 -0.16,-0.28 -0.22,-0.46l-2.75 -7.08c-0.33,-0.8 -0.67,-1.54 -1.02,-2.21 -0.34,-0.68 -0.75,-1.25 -1.24,-1.74 -0.47,-0.49 -1.04,-0.87 -1.69,-1.14 -0.65,-0.27 -1.43,-0.41 -2.34,-0.41l-2.67 0 0 12.79c0,0.12 -0.03,0.23 -0.1,0.32 -0.07,0.1 -0.18,0.17 -0.32,0.22 -0.15,0.06 -0.35,0.11 -0.6,0.15 -0.27,0.03 -0.58,0.05 -0.97,0.05 -0.39,0 -0.7,-0.02 -0.97,-0.05 -0.25,-0.04 -0.45,-0.09 -0.6,-0.15 -0.16,-0.05 -0.26,-0.12 -0.33,-0.22 -0.06,-0.09 -0.09,-0.2 -0.09,-0.32l0 -27.77c0,-0.6 0.16,-1.02 0.47,-1.27 0.32,-0.24 0.66,-0.36 1.01,-0.36l6.38 0c0.76,0 1.38,0.02 1.89,0.06 0.5,0.04 0.95,0.09 1.35,0.13 1.16,0.2 2.19,0.52 3.08,0.95 0.89,0.43 1.63,0.98 2.23,1.64 0.61,0.67 1.06,1.42 1.36,2.29 0.3,0.85 0.45,1.8 0.45,2.84 0,0.99 -0.13,1.89 -0.4,2.69 -0.28,0.79 -0.67,1.5 -1.17,2.11 -0.52,0.61 -1.13,1.14 -1.84,1.59 -0.71,0.44 -1.5,0.82 -2.39,1.13 0.5,0.22 0.94,0.49 1.35,0.82 0.4,0.33 0.77,0.74 1.12,1.19 0.35,0.47 0.68,1.01 0.99,1.61 0.31,0.6 0.62,1.28 0.93,2.04l2.68 6.61c0.22,0.56 0.36,0.95 0.42,1.17 0.06,0.23 0.09,0.4 0.09,0.53zm-6 -21.09c0,-1.17 -0.26,-2.17 -0.79,-2.98 -0.53,-0.81 -1.4,-1.39 -2.65,-1.75 -0.38,-0.11 -0.82,-0.18 -1.3,-0.23 -0.49,-0.05 -1.12,-0.07 -1.92,-0.07l-3.36 0 0 10.11 3.89 0c1.06,0 1.97,-0.13 2.73,-0.38 0.76,-0.26 1.4,-0.62 1.91,-1.07 0.51,-0.46 0.89,-1 1.13,-1.61 0.24,-0.62 0.36,-1.29 0.36,-2.02zm30.18 0.48c0,1.5 -0.24,2.86 -0.74,4.07 -0.49,1.2 -1.2,2.23 -2.12,3.08 -0.92,0.85 -2.04,1.5 -3.38,1.97 -1.34,0.47 -2.93,0.7 -4.79,0.7l-3.4 0 0 10.79c0,0.12 -0.03,0.23 -0.1,0.32 -0.07,0.1 -0.18,0.17 -0.32,0.22 -0.15,0.06 -0.35,0.11 -0.6,0.15 -0.27,0.03 -0.58,0.05 -0.97,0.05 -0.39,0 -0.7,-0.02 -0.96,-0.05 -0.26,-0.04 -0.46,-0.09 -0.61,-0.15 -0.16,-0.05 -0.26,-0.12 -0.33,-0.22 -0.06,-0.09 -0.09,-0.2 -0.09,-0.32l0 -27.68c0,-0.62 0.16,-1.06 0.49,-1.32 0.32,-0.26 0.68,-0.4 1.08,-0.4l6.42 0c0.64,0 1.27,0.03 1.86,0.08 0.6,0.06 1.3,0.18 2.11,0.35 0.81,0.18 1.63,0.52 2.48,1 0.84,0.49 1.55,1.09 2.14,1.8 0.59,0.71 1.04,1.54 1.36,2.47 0.31,0.93 0.47,1.97 0.47,3.09zm-4.17 0.32c0,-1.23 -0.24,-2.25 -0.69,-3.07 -0.45,-0.82 -1.02,-1.43 -1.7,-1.84 -0.67,-0.39 -1.36,-0.65 -2.08,-0.75 -0.72,-0.12 -1.42,-0.17 -2.1,-0.17l-3.69 0 0 12.05 3.6 0c1.2,0 2.21,-0.15 3,-0.46 0.8,-0.31 1.46,-0.74 2.01,-1.29 0.54,-0.55 0.95,-1.21 1.23,-1.97 0.27,-0.77 0.42,-1.6 0.42,-2.5zm26.98 19.24c0,0.28 -0.01,0.52 -0.04,0.73 -0.04,0.21 -0.09,0.38 -0.16,0.52 -0.08,0.15 -0.17,0.24 -0.27,0.3 -0.1,0.07 -0.22,0.1 -0.34,0.1l-14.41 0c-0.35,0 -0.69,-0.12 -1.01,-0.36 -0.31,-0.24 -0.47,-0.66 -0.47,-1.26l0 -26.75c0,-0.6 0.16,-1.02 0.47,-1.27 0.32,-0.24 0.66,-0.36 1.01,-0.36l14.24 0c0.13,0 0.24,0.04 0.34,0.1 0.1,0.06 0.18,0.16 0.25,0.3 0.05,0.14 0.11,0.32 0.15,0.52 0.04,0.21 0.05,0.47 0.05,0.78 0,0.28 -0.01,0.52 -0.05,0.73 -0.04,0.21 -0.1,0.38 -0.15,0.52 -0.07,0.12 -0.15,0.22 -0.25,0.28 -0.1,0.06 -0.21,0.1 -0.34,0.1l-11.74 0 0 9.39 10.08 0c0.13,0 0.24,0.04 0.34,0.11 0.1,0.07 0.18,0.16 0.25,0.29 0.08,0.13 0.12,0.29 0.15,0.5 0.04,0.23 0.05,0.48 0.05,0.77 0,0.29 -0.01,0.52 -0.05,0.72 -0.03,0.21 -0.07,0.37 -0.15,0.49 -0.07,0.13 -0.15,0.22 -0.25,0.27 -0.1,0.06 -0.21,0.08 -0.34,0.08l-10.08 0 0 10.73 11.91 0c0.12,0 0.24,0.03 0.34,0.09 0.1,0.06 0.19,0.16 0.27,0.29 0.07,0.13 0.12,0.3 0.16,0.51 0.03,0.2 0.04,0.47 0.04,0.78zm29.16 -0.02c0,0.31 -0.06,0.58 -0.16,0.79 -0.1,0.21 -0.24,0.4 -0.4,0.53 -0.17,0.14 -0.36,0.24 -0.57,0.3 -0.21,0.06 -0.42,0.1 -0.62,0.1l-1.32 0c-0.41,0 -0.78,-0.04 -1.09,-0.13 -0.31,-0.09 -0.6,-0.24 -0.89,-0.46 -0.28,-0.22 -0.56,-0.52 -0.84,-0.9 -0.27,-0.38 -0.58,-0.88 -0.89,-1.48l-9.16 -17.06c-0.48,-0.88 -0.97,-1.81 -1.45,-2.77 -0.49,-0.97 -0.94,-1.91 -1.36,-2.82l-0.05 0c0.04,1.11 0.06,2.25 0.07,3.41 0.02,1.16 0.03,2.31 0.03,3.45l0 18.11c0,0.11 -0.03,0.21 -0.1,0.31 -0.07,0.1 -0.18,0.18 -0.33,0.23 -0.16,0.06 -0.35,0.11 -0.61,0.15 -0.25,0.03 -0.57,0.05 -0.96,0.05 -0.4,0 -0.72,-0.02 -0.97,-0.05 -0.26,-0.04 -0.46,-0.09 -0.6,-0.15 -0.15,-0.05 -0.25,-0.13 -0.32,-0.23 -0.07,-0.1 -0.1,-0.2 -0.1,-0.31l0 -27.68c0,-0.62 0.18,-1.06 0.53,-1.32 0.35,-0.26 0.73,-0.4 1.15,-0.4l1.96 0c0.46,0 0.85,0.04 1.16,0.12 0.31,0.07 0.59,0.21 0.83,0.38 0.25,0.18 0.49,0.43 0.72,0.75 0.23,0.31 0.48,0.71 0.73,1.19l7.04 13.16c0.44,0.81 0.86,1.59 1.26,2.36 0.4,0.77 0.8,1.52 1.17,2.26 0.37,0.74 0.74,1.47 1.11,2.19 0.37,0.71 0.72,1.44 1.09,2.17l0.02 0c-0.03,-1.23 -0.05,-2.49 -0.06,-3.81 -0.01,-1.32 -0.01,-2.6 -0.01,-3.82l0 -16.25c0,-0.11 0.03,-0.21 0.1,-0.3 0.07,-0.1 0.18,-0.17 0.33,-0.25 0.16,-0.07 0.36,-0.11 0.61,-0.15 0.25,-0.03 0.58,-0.04 0.99,-0.04 0.36,0 0.67,0.01 0.93,0.04 0.26,0.04 0.47,0.08 0.61,0.15 0.15,0.08 0.25,0.15 0.32,0.25 0.07,0.09 0.1,0.19 0.1,0.3l0 27.63zm24.65 0.02c0,0.28 -0.01,0.52 -0.04,0.73 -0.04,0.21 -0.09,0.38 -0.16,0.52 -0.08,0.15 -0.17,0.24 -0.27,0.3 -0.11,0.07 -0.22,0.1 -0.34,0.1l-14.41 0c-0.35,0 -0.69,-0.12 -1.01,-0.36 -0.31,-0.24 -0.47,-0.66 -0.47,-1.26l0 -26.75c0,-0.6 0.16,-1.02 0.47,-1.27 0.32,-0.24 0.66,-0.36 1.01,-0.36l14.24 0c0.13,0 0.24,0.04 0.34,0.1 0.1,0.06 0.18,0.16 0.25,0.3 0.05,0.14 0.11,0.32 0.15,0.52 0.04,0.21 0.05,0.47 0.05,0.78 0,0.28 -0.01,0.52 -0.05,0.73 -0.04,0.21 -0.1,0.38 -0.15,0.52 -0.07,0.12 -0.15,0.22 -0.25,0.28 -0.1,0.06 -0.21,0.1 -0.34,0.1l-11.74 0 0 9.39 10.08 0c0.13,0 0.24,0.04 0.34,0.11 0.1,0.07 0.18,0.16 0.25,0.29 0.08,0.13 0.12,0.29 0.15,0.5 0.04,0.23 0.05,0.48 0.05,0.77 0,0.29 -0.01,0.52 -0.05,0.72 -0.03,0.21 -0.07,0.37 -0.15,0.49 -0.07,0.13 -0.15,0.22 -0.25,0.27 -0.1,0.06 -0.21,0.08 -0.34,0.08l-10.08 0 0 10.73 11.91 0c0.12,0 0.23,0.03 0.34,0.09 0.1,0.06 0.19,0.16 0.27,0.29 0.07,0.13 0.12,0.3 0.16,0.51 0.03,0.2 0.04,0.47 0.04,0.78zm29.54 -13.79c0,2.59 -0.34,4.86 -1,6.8 -0.66,1.95 -1.64,3.55 -2.91,4.83 -1.27,1.27 -2.84,2.23 -4.69,2.86 -1.86,0.63 -4.07,0.95 -6.63,0.95l-6.35 0c-0.36,0 -0.7,-0.12 -1.01,-0.36 -0.32,-0.24 -0.48,-0.66 -0.48,-1.26l0 -26.75c0,-0.6 0.16,-1.02 0.48,-1.27 0.31,-0.24 0.65,-0.36 1.01,-0.36l6.79 0c2.6,0 4.79,0.34 6.58,1.01 1.79,0.67 3.29,1.64 4.51,2.9 1.21,1.26 2.13,2.79 2.75,4.58 0.63,1.79 0.95,3.81 0.95,6.07zm-4.18 0.17c0,-1.62 -0.2,-3.13 -0.6,-4.53 -0.4,-1.4 -1.04,-2.61 -1.89,-3.63 -0.86,-1.02 -1.95,-1.81 -3.27,-2.39 -1.31,-0.57 -3,-0.85 -5.08,-0.85l-4.06 0 0 23.35 4.1 0c1.93,0 3.54,-0.24 4.86,-0.72 1.31,-0.48 2.41,-1.21 3.29,-2.2 0.89,-0.99 1.55,-2.23 1.99,-3.73 0.44,-1.49 0.66,-3.26 0.66,-5.3zm25.02 14.67c0,0.12 -0.03,0.23 -0.1,0.32 -0.06,0.1 -0.16,0.17 -0.32,0.22 -0.15,0.06 -0.36,0.11 -0.61,0.15 -0.26,0.03 -0.58,0.05 -0.96,0.05 -0.38,0 -0.69,-0.02 -0.95,-0.05 -0.26,-0.04 -0.48,-0.09 -0.63,-0.15 -0.16,-0.05 -0.26,-0.12 -0.32,-0.22 -0.07,-0.09 -0.1,-0.2 -0.1,-0.32l0 -28.79c0,-0.13 0.03,-0.24 0.11,-0.33 0.07,-0.09 0.19,-0.16 0.34,-0.22 0.17,-0.06 0.37,-0.1 0.63,-0.14 0.25,-0.04 0.56,-0.06 0.92,-0.06 0.38,0 0.7,0.02 0.96,0.06 0.25,0.04 0.46,0.08 0.61,0.14 0.16,0.06 0.26,0.13 0.32,0.22 0.07,0.09 0.1,0.2 0.1,0.33l0 28.79zm30.66 -1.07c0,0.31 -0.06,0.58 -0.16,0.79 -0.1,0.21 -0.24,0.4 -0.41,0.53 -0.16,0.14 -0.35,0.24 -0.56,0.3 -0.21,0.06 -0.42,0.1 -0.62,0.1l-1.32 0c-0.41,0 -0.78,-0.04 -1.09,-0.13 -0.31,-0.09 -0.61,-0.24 -0.89,-0.46 -0.28,-0.22 -0.56,-0.52 -0.84,-0.9 -0.28,-0.38 -0.58,-0.88 -0.89,-1.48l-9.16 -17.06c-0.48,-0.88 -0.97,-1.81 -1.45,-2.77 -0.49,-0.97 -0.94,-1.91 -1.36,-2.82l-0.05 0c0.03,1.11 0.06,2.25 0.07,3.41 0.02,1.16 0.03,2.31 0.03,3.45l0 18.11c0,0.11 -0.03,0.21 -0.1,0.31 -0.07,0.1 -0.18,0.18 -0.33,0.23 -0.16,0.06 -0.35,0.11 -0.61,0.15 -0.25,0.03 -0.58,0.05 -0.96,0.05 -0.4,0 -0.72,-0.02 -0.98,-0.05 -0.25,-0.04 -0.45,-0.09 -0.59,-0.15 -0.15,-0.05 -0.25,-0.13 -0.32,-0.23 -0.07,-0.1 -0.1,-0.2 -0.1,-0.31l0 -27.68c0,-0.62 0.18,-1.06 0.53,-1.32 0.35,-0.26 0.73,-0.4 1.15,-0.4l1.96 0c0.46,0 0.85,0.04 1.16,0.12 0.31,0.07 0.59,0.21 0.83,0.38 0.25,0.18 0.49,0.43 0.72,0.75 0.23,0.31 0.48,0.71 0.73,1.19l7.04 13.16c0.43,0.81 0.85,1.59 1.26,2.36 0.4,0.77 0.8,1.52 1.17,2.26 0.37,0.74 0.74,1.47 1.11,2.19 0.37,0.71 0.72,1.44 1.09,2.17l0.02 0c-0.03,-1.23 -0.05,-2.49 -0.06,-3.81 -0.01,-1.32 -0.01,-2.6 -0.01,-3.82l0 -16.25c0,-0.11 0.03,-0.21 0.09,-0.3 0.08,-0.1 0.19,-0.17 0.34,-0.25 0.16,-0.07 0.36,-0.11 0.61,-0.15 0.25,-0.03 0.58,-0.04 0.99,-0.04 0.36,0 0.67,0.01 0.93,0.04 0.26,0.04 0.46,0.08 0.61,0.15 0.15,0.08 0.25,0.15 0.32,0.25 0.06,0.09 0.1,0.19 0.1,0.3l0 27.63zm26.74 -26.62c0,0.3 -0.02,0.55 -0.05,0.76 -0.03,0.22 -0.08,0.39 -0.15,0.52 -0.07,0.13 -0.15,0.23 -0.25,0.29 -0.1,0.06 -0.22,0.09 -0.33,0.09l-8.43 0 0 26.03c0,0.12 -0.03,0.23 -0.09,0.32 -0.07,0.1 -0.17,0.17 -0.33,0.22 -0.15,0.06 -0.35,0.11 -0.61,0.15 -0.26,0.03 -0.57,0.05 -0.96,0.05 -0.37,0 -0.69,-0.02 -0.95,-0.05 -0.26,-0.04 -0.47,-0.09 -0.63,-0.15 -0.15,-0.05 -0.26,-0.12 -0.32,-0.22 -0.06,-0.09 -0.09,-0.2 -0.09,-0.32l0 -26.03 -8.43 0c-0.12,0 -0.23,-0.03 -0.33,-0.09 -0.1,-0.06 -0.18,-0.16 -0.24,-0.29 -0.06,-0.13 -0.12,-0.3 -0.16,-0.52 -0.03,-0.21 -0.05,-0.46 -0.05,-0.76 0,-0.29 0.02,-0.55 0.05,-0.77 0.04,-0.22 0.1,-0.41 0.16,-0.54 0.06,-0.14 0.14,-0.25 0.24,-0.3 0.1,-0.06 0.21,-0.1 0.33,-0.1l20.84 0c0.11,0 0.23,0.04 0.33,0.1 0.1,0.05 0.18,0.16 0.25,0.3 0.07,0.13 0.12,0.32 0.15,0.54 0.03,0.22 0.05,0.48 0.05,0.77zm26.88 17.2c0,1.82 -0.27,3.45 -0.8,4.88 -0.53,1.42 -1.3,2.63 -2.29,3.62 -0.99,0.99 -2.19,1.74 -3.61,2.25 -1.42,0.51 -3.03,0.77 -4.84,0.77 -1.66,0 -3.16,-0.24 -4.52,-0.73 -1.36,-0.47 -2.52,-1.18 -3.5,-2.11 -0.97,-0.94 -1.72,-2.11 -2.24,-3.52 -0.53,-1.4 -0.79,-3.02 -0.79,-4.86l0 -18.6c0,-0.13 0.03,-0.24 0.09,-0.33 0.06,-0.09 0.17,-0.16 0.32,-0.22 0.16,-0.06 0.36,-0.1 0.61,-0.14 0.25,-0.04 0.57,-0.06 0.98,-0.06 0.38,0 0.69,0.02 0.95,0.06 0.27,0.04 0.48,0.08 0.62,0.14 0.15,0.06 0.25,0.13 0.32,0.22 0.06,0.09 0.09,0.2 0.09,0.33l0 18.11c0,1.38 0.17,2.6 0.51,3.63 0.34,1.04 0.83,1.9 1.47,2.59 0.63,0.68 1.41,1.2 2.31,1.55 0.89,0.34 1.91,0.52 3.04,0.52 1.14,0 2.17,-0.17 3.07,-0.51 0.91,-0.34 1.67,-0.85 2.29,-1.53 0.62,-0.68 1.1,-1.52 1.43,-2.53 0.33,-1 0.5,-2.17 0.5,-3.52l0 -18.31c0,-0.13 0.03,-0.24 0.09,-0.33 0.07,-0.09 0.17,-0.16 0.33,-0.22 0.16,-0.06 0.36,-0.1 0.62,-0.14 0.26,-0.04 0.57,-0.06 0.97,-0.06 0.37,0 0.68,0.02 0.94,0.06 0.25,0.04 0.46,0.08 0.6,0.14 0.15,0.06 0.26,0.13 0.33,0.22 0.08,0.09 0.11,0.2 0.11,0.33l0 18.3zm11.89 10.49c0,0.12 -0.03,0.23 -0.09,0.32 -0.07,0.1 -0.17,0.17 -0.33,0.22 -0.15,0.06 -0.35,0.11 -0.61,0.15 -0.26,0.03 -0.57,0.05 -0.96,0.05 -0.37,0 -0.69,-0.02 -0.95,-0.05 -0.26,-0.04 -0.47,-0.09 -0.62,-0.15 -0.16,-0.05 -0.27,-0.12 -0.33,-0.22 -0.06,-0.09 -0.09,-0.2 -0.09,-0.32l0 -28.79c0,-0.13 0.03,-0.24 0.1,-0.33 0.07,-0.09 0.19,-0.16 0.35,-0.22 0.16,-0.06 0.37,-0.1 0.62,-0.14 0.26,-0.04 0.56,-0.06 0.92,-0.06 0.39,0 0.7,0.02 0.96,0.06 0.26,0.04 0.46,0.08 0.61,0.14 0.16,0.06 0.26,0.13 0.33,0.22 0.06,0.09 0.09,0.2 0.09,0.33l0 28.79zm26.77 -27.69c0,0.3 -0.02,0.55 -0.05,0.76 -0.03,0.22 -0.08,0.39 -0.15,0.52 -0.07,0.13 -0.15,0.23 -0.25,0.29 -0.1,0.06 -0.22,0.09 -0.33,0.09l-8.43 0 0 26.03c0,0.12 -0.03,0.23 -0.09,0.32 -0.07,0.1 -0.17,0.17 -0.33,0.22 -0.15,0.06 -0.35,0.11 -0.61,0.15 -0.26,0.03 -0.57,0.05 -0.96,0.05 -0.37,0 -0.69,-0.02 -0.95,-0.05 -0.26,-0.04 -0.47,-0.09 -0.63,-0.15 -0.15,-0.05 -0.26,-0.12 -0.32,-0.22 -0.06,-0.09 -0.09,-0.2 -0.09,-0.32l0 -26.03 -8.43 0c-0.12,0 -0.23,-0.03 -0.33,-0.09 -0.1,-0.06 -0.18,-0.16 -0.25,-0.29 -0.05,-0.13 -0.11,-0.3 -0.15,-0.52 -0.04,-0.21 -0.05,-0.46 -0.05,-0.76 0,-0.29 0.01,-0.55 0.05,-0.77 0.04,-0.22 0.1,-0.41 0.15,-0.54 0.07,-0.14 0.15,-0.25 0.25,-0.3 0.1,-0.06 0.21,-0.1 0.33,-0.1l20.84 0c0.11,0 0.23,0.04 0.33,0.1 0.1,0.05 0.18,0.16 0.25,0.3 0.07,0.13 0.12,0.32 0.15,0.54 0.03,0.22 0.05,0.48 0.05,0.77zm8.32 27.69c0,0.12 -0.03,0.23 -0.1,0.32 -0.06,0.1 -0.16,0.17 -0.32,0.22 -0.15,0.06 -0.36,0.11 -0.61,0.15 -0.26,0.03 -0.58,0.05 -0.96,0.05 -0.38,0 -0.69,-0.02 -0.95,-0.05 -0.26,-0.04 -0.48,-0.09 -0.63,-0.15 -0.16,-0.05 -0.26,-0.12 -0.32,-0.22 -0.06,-0.09 -0.1,-0.2 -0.1,-0.32l0 -28.79c0,-0.13 0.04,-0.24 0.11,-0.33 0.07,-0.09 0.19,-0.16 0.34,-0.22 0.17,-0.06 0.38,-0.1 0.63,-0.14 0.25,-0.04 0.56,-0.06 0.92,-0.06 0.38,0 0.7,0.02 0.96,0.06 0.25,0.04 0.46,0.08 0.61,0.14 0.16,0.06 0.26,0.13 0.32,0.22 0.07,0.09 0.1,0.2 0.1,0.33l0 28.79z"/>
    <path class="fil0" d="M563.34 118.73c0,2.43 -0.29,4.62 -0.86,6.56 -0.57,1.95 -1.43,3.6 -2.56,4.97 -1.14,1.36 -2.56,2.41 -4.28,3.15 -1.71,0.73 -3.72,1.1 -6,1.1 -2.26,0 -4.2,-0.34 -5.85,-1.01 -1.65,-0.67 -3,-1.65 -4.08,-2.93 -1.07,-1.29 -1.87,-2.88 -2.4,-4.77 -0.53,-1.9 -0.79,-4.09 -0.79,-6.55 0,-2.37 0.29,-4.52 0.86,-6.45 0.57,-1.93 1.43,-3.57 2.58,-4.92 1.14,-1.34 2.57,-2.39 4.28,-3.12 1.71,-0.74 3.71,-1.1 6.01,-1.1 2.2,0 4.13,0.33 5.76,0.99 1.64,0.67 3.01,1.63 4.09,2.91 1.09,1.27 1.91,2.84 2.44,4.73 0.53,1.87 0.8,4.02 0.8,6.44zm-4.23 0.28c0,-1.69 -0.15,-3.27 -0.45,-4.73 -0.3,-1.46 -0.8,-2.72 -1.5,-3.8 -0.7,-1.06 -1.64,-1.9 -2.81,-2.5 -1.18,-0.61 -2.62,-0.91 -4.35,-0.91 -1.73,0 -3.18,0.33 -4.35,0.98 -1.17,0.65 -2.13,1.51 -2.85,2.58 -0.74,1.09 -1.26,2.34 -1.58,3.79 -0.31,1.44 -0.47,2.95 -0.47,4.54 0,1.77 0.15,3.38 0.44,4.86 0.29,1.49 0.78,2.76 1.48,3.84 0.69,1.06 1.62,1.89 2.78,2.49 1.17,0.59 2.63,0.89 4.39,0.89 1.74,0 3.21,-0.32 4.39,-0.97 1.19,-0.65 2.15,-1.52 2.87,-2.63 0.72,-1.1 1.25,-2.38 1.55,-3.83 0.31,-1.44 0.46,-2.98 0.46,-4.6zm33.23 13.4c0,0.31 -0.05,0.58 -0.16,0.79 -0.1,0.21 -0.23,0.4 -0.4,0.53 -0.17,0.14 -0.36,0.24 -0.56,0.3 -0.22,0.06 -0.42,0.1 -0.63,0.1l-1.32 0c-0.41,0 -0.77,-0.04 -1.09,-0.13 -0.31,-0.09 -0.6,-0.24 -0.88,-0.46 -0.28,-0.22 -0.57,-0.52 -0.84,-0.9 -0.28,-0.38 -0.58,-0.88 -0.9,-1.48l-9.16 -17.06c-0.48,-0.88 -0.96,-1.81 -1.44,-2.77 -0.49,-0.97 -0.95,-1.91 -1.36,-2.82l-0.05 0c0.03,1.11 0.05,2.25 0.07,3.41 0.02,1.16 0.02,2.31 0.02,3.45l0 18.11c0,0.11 -0.03,0.21 -0.09,0.31 -0.07,0.1 -0.18,0.18 -0.33,0.23 -0.16,0.06 -0.36,0.11 -0.61,0.15 -0.26,0.03 -0.58,0.05 -0.97,0.05 -0.39,0 -0.72,-0.02 -0.97,-0.05 -0.25,-0.04 -0.45,-0.09 -0.59,-0.15 -0.15,-0.05 -0.26,-0.13 -0.33,-0.23 -0.06,-0.1 -0.09,-0.2 -0.09,-0.31l0 -27.68c0,-0.62 0.17,-1.06 0.53,-1.32 0.34,-0.26 0.72,-0.4 1.14,-0.4l1.97 0c0.45,0 0.84,0.04 1.15,0.12 0.32,0.07 0.59,0.21 0.84,0.38 0.24,0.18 0.49,0.43 0.72,0.75 0.23,0.31 0.47,0.71 0.73,1.19l7.04 13.16c0.43,0.81 0.85,1.59 1.25,2.36 0.41,0.77 0.8,1.52 1.17,2.26 0.38,0.74 0.75,1.47 1.11,2.19 0.37,0.71 0.73,1.44 1.09,2.17l0.03 0c-0.03,-1.23 -0.06,-2.49 -0.07,-3.81 0,-1.32 0,-2.6 0,-3.82l0 -16.25c0,-0.11 0.03,-0.21 0.09,-0.3 0.07,-0.1 0.18,-0.17 0.33,-0.25 0.16,-0.07 0.37,-0.11 0.61,-0.15 0.26,-0.03 0.59,-0.04 1,-0.04 0.35,0 0.66,0.01 0.92,0.04 0.26,0.04 0.47,0.08 0.61,0.15 0.15,0.08 0.26,0.15 0.33,0.25 0.06,0.09 0.09,0.19 0.09,0.3l0 27.63z"/>
   </g>
   <g>
    <g>
     <path class="fil1" d="M378 75.8c-19.09,0 -34.55,-15.46 -34.55,-34.55 0,-18.76 14.95,-34.03 33.6,-34.54l0 -6.71c-22.36,0.51 -40.32,18.78 -40.32,41.25 0,22.8 18.48,41.27 41.27,41.27 22.37,0 40.58,-17.81 41.24,-40.02l-6.72 0c-0.65,18.51 -15.86,33.3 -34.52,33.3z"/>
     <path class="fil1" d="M378 63.46c-12.27,0 -22.21,-9.94 -22.21,-22.21 0,-5.65 2.11,-10.82 5.6,-14.74l-5.78 -5.47c-4.83,5.35 -7.78,12.44 -7.78,20.21 0,16.66 13.51,30.17 30.17,30.17 16.65,0 30.16,-13.51 30.16,-30.17 0,-8.63 -3.63,-16.41 -9.44,-21.91l-5.63 5.63c4.38,4.05 7.12,9.85 7.12,16.28 0,12.27 -9.95,22.21 -22.21,22.21z"/>
     <path class="fil1" d="M392.01 41.25c0,7.74 -6.28,14.01 -14.01,14.01 -7.74,0 -14.01,-6.27 -14.01,-14.01 0,-2.14 0.48,-4.17 1.34,-5.99l-3.79 -2.19c-1.23,2.47 -1.92,5.25 -1.92,8.18 0,10.15 8.23,18.38 18.38,18.38 10.14,0 18.37,-8.23 18.37,-18.38 0,-7.75 -4.8,-14.38 -11.59,-17.08l-1.13 4.26c4.92,2.17 8.36,7.1 8.36,12.82z"/>
    </g>
    <path class="fil0" d="M38.28 61.7c0,0.3 -0.07,0.57 -0.22,0.79 -0.15,0.23 -0.43,0.41 -0.86,0.57 -0.41,0.15 -0.98,0.26 -1.71,0.34 -0.74,0.08 -1.65,0.13 -2.76,0.13 -1.75,0 -3.01,-0.07 -3.79,-0.21 -0.77,-0.13 -1.33,-0.33 -1.66,-0.61 -0.33,-0.26 -0.59,-0.6 -0.79,-0.97l-15.86 -24.91 0 24.91c0,0.29 -0.08,0.55 -0.25,0.78 -0.15,0.2 -0.44,0.4 -0.84,0.54 -0.41,0.15 -0.95,0.26 -1.62,0.34 -0.67,0.08 -1.54,0.13 -2.58,0.13 -1.02,0 -1.88,-0.05 -2.57,-0.13 -0.69,-0.08 -1.23,-0.19 -1.63,-0.34 -0.41,-0.16 -0.7,-0.34 -0.88,-0.54 -0.18,-0.23 -0.26,-0.49 -0.26,-0.78l0 -49.45c0,-0.31 0.08,-0.56 0.26,-0.78 0.18,-0.21 0.47,-0.39 0.88,-0.52 0.4,-0.14 0.94,-0.24 1.63,-0.32 0.69,-0.09 1.55,-0.13 2.57,-0.13 1.04,0 1.91,0.04 2.58,0.13 0.67,0.08 1.21,0.18 1.62,0.32 0.4,0.13 0.69,0.31 0.84,0.52 0.17,0.22 0.25,0.47 0.25,0.78l0 22.35 15.36 -22.31c0.2,-0.35 0.42,-0.64 0.7,-0.87 0.26,-0.24 0.62,-0.42 1.05,-0.56 0.43,-0.12 0.98,-0.22 1.66,-0.27 0.68,-0.06 1.53,-0.09 2.59,-0.09 1.08,0 1.96,0.04 2.67,0.13 0.7,0.08 1.26,0.19 1.69,0.34 0.41,0.14 0.7,0.33 0.85,0.54 0.17,0.22 0.25,0.46 0.25,0.74 0,0.45 -0.12,0.92 -0.36,1.42 -0.25,0.49 -0.7,1.25 -1.38,2.31l-14.37 18.87 15.68 23.72c0.6,1.11 0.96,1.86 1.08,2.22 0.13,0.36 0.18,0.65 0.18,0.87zm35.12 -18.94c0,1.25 -0.28,2.16 -0.83,2.76 -0.56,0.59 -1.32,0.9 -2.3,0.9l-22.03 0c0,1.53 0.18,2.92 0.55,4.18 0.36,1.24 0.94,2.31 1.73,3.18 0.8,0.87 1.83,1.54 3.09,1.99 1.26,0.46 2.75,0.7 4.51,0.7 1.78,0 3.35,-0.13 4.7,-0.39 1.35,-0.26 2.52,-0.54 3.51,-0.86 0.98,-0.32 1.8,-0.59 2.45,-0.86 0.65,-0.26 1.17,-0.39 1.57,-0.39 0.25,0 0.46,0.05 0.61,0.14 0.17,0.1 0.31,0.27 0.42,0.52 0.1,0.23 0.18,0.58 0.22,1.02 0.04,0.44 0.05,1.01 0.05,1.67 0,0.6 -0.01,1.11 -0.04,1.53 -0.02,0.41 -0.07,0.77 -0.12,1.06 -0.06,0.31 -0.13,0.56 -0.24,0.75 -0.11,0.21 -0.25,0.4 -0.43,0.59 -0.18,0.19 -0.65,0.45 -1.43,0.78 -0.79,0.33 -1.79,0.65 -3.01,0.97 -1.22,0.32 -2.6,0.59 -4.16,0.83 -1.57,0.24 -3.24,0.36 -5.03,0.36 -3.22,0 -6.03,-0.4 -8.46,-1.22 -2.4,-0.8 -4.42,-2.03 -6.06,-3.68 -1.62,-1.65 -2.82,-3.74 -3.62,-6.24 -0.79,-2.52 -1.19,-5.47 -1.19,-8.85 0,-3.21 0.41,-6.1 1.25,-8.69 0.84,-2.57 2.05,-4.76 3.66,-6.56 1.59,-1.8 3.53,-3.17 5.81,-4.11 2.3,-0.96 4.87,-1.43 7.74,-1.43 3.03,0 5.62,0.45 7.76,1.35 2.16,0.88 3.92,2.13 5.31,3.71 1.37,1.57 2.39,3.46 3.04,5.61 0.65,2.16 0.97,4.52 0.97,7.06l0 1.62zm-9.88 -2.9c0.08,-2.87 -0.5,-5.12 -1.73,-6.76 -1.24,-1.64 -3.13,-2.46 -5.71,-2.46 -1.3,0 -2.43,0.25 -3.39,0.73 -0.97,0.49 -1.77,1.14 -2.41,1.97 -0.63,0.83 -1.12,1.8 -1.45,2.92 -0.34,1.13 -0.54,2.32 -0.59,3.6l15.28 0zm51.69 2.9c0,1.25 -0.27,2.16 -0.83,2.76 -0.55,0.59 -1.31,0.9 -2.29,0.9l-22.04 0c0,1.53 0.18,2.92 0.55,4.18 0.36,1.24 0.94,2.31 1.73,3.18 0.81,0.87 1.83,1.54 3.09,1.99 1.26,0.46 2.75,0.7 4.51,0.7 1.79,0 3.35,-0.13 4.71,-0.39 1.34,-0.26 2.52,-0.54 3.5,-0.86 0.98,-0.32 1.8,-0.59 2.45,-0.86 0.65,-0.26 1.18,-0.39 1.58,-0.39 0.25,0 0.45,0.05 0.61,0.14 0.16,0.1 0.3,0.27 0.41,0.52 0.1,0.23 0.18,0.58 0.22,1.02 0.05,0.44 0.06,1.01 0.06,1.67 0,0.6 -0.01,1.11 -0.04,1.53 -0.03,0.41 -0.07,0.77 -0.13,1.06 -0.05,0.31 -0.12,0.56 -0.23,0.75 -0.11,0.21 -0.25,0.4 -0.43,0.59 -0.18,0.19 -0.65,0.45 -1.44,0.78 -0.79,0.33 -1.79,0.65 -3,0.97 -1.22,0.32 -2.61,0.59 -4.17,0.83 -1.56,0.24 -3.24,0.36 -5.02,0.36 -3.23,0 -6.04,-0.4 -8.46,-1.22 -2.41,-0.8 -4.43,-2.03 -6.06,-3.68 -1.62,-1.65 -2.83,-3.74 -3.63,-6.24 -0.79,-2.52 -1.19,-5.47 -1.19,-8.85 0,-3.21 0.41,-6.1 1.26,-8.69 0.83,-2.57 2.05,-4.76 3.65,-6.56 1.59,-1.8 3.53,-3.17 5.82,-4.11 2.29,-0.96 4.87,-1.43 7.73,-1.43 3.03,0 5.62,0.45 7.77,1.35 2.16,0.88 3.91,2.13 5.3,3.71 1.37,1.57 2.39,3.46 3.04,5.61 0.65,2.16 0.97,4.52 0.97,7.06l0 1.62zm-9.88 -2.9c0.08,-2.87 -0.5,-5.12 -1.73,-6.76 -1.23,-1.64 -3.13,-2.46 -5.7,-2.46 -1.3,0 -2.44,0.25 -3.39,0.73 -0.97,0.49 -1.77,1.14 -2.41,1.97 -0.64,0.83 -1.12,1.8 -1.45,2.92 -0.35,1.13 -0.54,2.32 -0.6,3.6l15.28 0zm52.86 22.05c0,0.26 -0.08,0.49 -0.25,0.7 -0.15,0.21 -0.43,0.38 -0.8,0.51 -0.39,0.13 -0.92,0.24 -1.58,0.31 -0.66,0.07 -1.48,0.1 -2.45,0.1 -1.01,0 -1.84,-0.03 -2.51,-0.1 -0.66,-0.07 -1.19,-0.18 -1.57,-0.31 -0.38,-0.13 -0.65,-0.3 -0.81,-0.51 -0.16,-0.21 -0.24,-0.44 -0.24,-0.7l0 -20.64c0,-1.76 -0.13,-3.14 -0.39,-4.14 -0.25,-1.01 -0.63,-1.87 -1.11,-2.57 -0.48,-0.72 -1.12,-1.28 -1.88,-1.68 -0.78,-0.39 -1.66,-0.58 -2.69,-0.58 -1.3,0 -2.6,0.47 -3.93,1.43 -1.31,0.94 -2.7,2.32 -4.12,4.12l0 24.06c0,0.26 -0.09,0.49 -0.25,0.7 -0.15,0.21 -0.43,0.38 -0.83,0.51 -0.39,0.13 -0.92,0.24 -1.55,0.31 -0.65,0.07 -1.48,0.1 -2.48,0.1 -1,0 -1.83,-0.03 -2.48,-0.1 -0.63,-0.07 -1.16,-0.18 -1.55,-0.31 -0.4,-0.13 -0.68,-0.3 -0.83,-0.51 -0.16,-0.21 -0.25,-0.44 -0.25,-0.7l0 -36.21c0,-0.27 0.07,-0.5 0.21,-0.71 0.12,-0.2 0.37,-0.37 0.72,-0.51 0.36,-0.12 0.8,-0.23 1.36,-0.3 0.55,-0.07 1.26,-0.1 2.09,-0.1 0.87,0 1.57,0.03 2.14,0.1 0.57,0.07 1.01,0.18 1.33,0.3 0.3,0.14 0.53,0.31 0.66,0.51 0.14,0.21 0.21,0.44 0.21,0.71l0 4.18c2,-2.16 4.03,-3.77 6.11,-4.85 2.06,-1.08 4.22,-1.62 6.46,-1.62 2.46,0 4.54,0.41 6.23,1.22 1.69,0.8 3.04,1.91 4.1,3.31 1.03,1.38 1.78,3.02 2.24,4.89 0.45,1.86 0.69,4.11 0.69,6.72l0 22.36zm35.52 -10.25c0,2.05 -0.39,3.86 -1.17,5.44 -0.76,1.57 -1.85,2.87 -3.26,3.93 -1.42,1.06 -3.08,1.84 -5,2.37 -1.92,0.53 -4,0.79 -6.24,0.79 -1.36,0 -2.66,-0.1 -3.89,-0.3 -1.23,-0.21 -2.33,-0.48 -3.31,-0.79 -0.97,-0.31 -1.79,-0.63 -2.44,-0.96 -0.65,-0.33 -1.12,-0.64 -1.41,-0.93 -0.3,-0.29 -0.54,-0.73 -0.69,-1.34 -0.17,-0.59 -0.25,-1.49 -0.25,-2.68 0,-0.78 0.03,-1.4 0.08,-1.87 0.06,-0.47 0.14,-0.86 0.24,-1.14 0.11,-0.27 0.25,-0.47 0.41,-0.57 0.16,-0.09 0.36,-0.13 0.61,-0.13 0.29,0 0.74,0.16 1.32,0.51 0.58,0.35 1.3,0.72 2.17,1.12 0.86,0.41 1.87,0.8 3.02,1.15 1.15,0.36 2.46,0.54 3.91,0.54 0.92,0 1.75,-0.1 2.45,-0.29 0.73,-0.18 1.35,-0.46 1.87,-0.82 0.53,-0.34 0.93,-0.79 1.21,-1.34 0.26,-0.54 0.4,-1.16 0.4,-1.87 0,-0.82 -0.25,-1.51 -0.75,-2.09 -0.51,-0.58 -1.17,-1.09 -1.99,-1.52 -0.83,-0.43 -1.77,-0.83 -2.81,-1.22 -1.04,-0.37 -2.12,-0.79 -3.21,-1.26 -1.1,-0.46 -2.17,-0.98 -3.21,-1.58 -1.04,-0.59 -1.98,-1.31 -2.81,-2.18 -0.82,-0.86 -1.48,-1.91 -2,-3.12 -0.49,-1.22 -0.74,-2.68 -0.74,-4.39 0,-1.73 0.34,-3.3 1.02,-4.76 0.68,-1.44 1.65,-2.68 2.92,-3.71 1.29,-1.02 2.84,-1.82 4.67,-2.39 1.84,-0.57 3.88,-0.85 6.17,-0.85 1.15,0 2.24,0.09 3.32,0.24 1.07,0.17 2.05,0.37 2.91,0.61 0.87,0.25 1.6,0.5 2.2,0.79 0.59,0.27 1.02,0.52 1.29,0.72 0.26,0.2 0.44,0.4 0.55,0.61 0.1,0.2 0.18,0.44 0.23,0.73 0.06,0.28 0.12,0.64 0.16,1.05 0.04,0.42 0.05,0.94 0.05,1.57 0,0.73 -0.01,1.32 -0.05,1.78 -0.04,0.46 -0.11,0.83 -0.21,1.09 -0.1,0.28 -0.22,0.46 -0.39,0.56 -0.17,0.09 -0.36,0.14 -0.57,0.14 -0.24,0 -0.63,-0.14 -1.14,-0.43 -0.52,-0.28 -1.17,-0.58 -1.94,-0.9 -0.78,-0.32 -1.68,-0.63 -2.69,-0.9 -1.02,-0.29 -2.18,-0.43 -3.49,-0.43 -0.92,0 -1.73,0.1 -2.4,0.28 -0.68,0.19 -1.24,0.47 -1.68,0.81 -0.43,0.35 -0.76,0.76 -0.97,1.23 -0.22,0.48 -0.33,0.99 -0.33,1.51 0,0.85 0.26,1.55 0.78,2.12 0.51,0.57 1.18,1.07 2.03,1.5 0.83,0.42 1.8,0.84 2.87,1.21 1.06,0.38 2.15,0.79 3.25,1.24 1.09,0.44 2.18,0.96 3.25,1.56 1.07,0.6 2.03,1.33 2.86,2.19 0.85,0.87 1.53,1.89 2.04,3.1 0.51,1.2 0.78,2.63 0.78,4.27zm17.85 10.25c0,0.26 -0.08,0.49 -0.25,0.7 -0.15,0.21 -0.43,0.38 -0.83,0.51 -0.39,0.13 -0.91,0.24 -1.55,0.31 -0.65,0.07 -1.48,0.1 -2.48,0.1 -0.99,0 -1.82,-0.03 -2.48,-0.1 -0.63,-0.07 -1.16,-0.18 -1.54,-0.31 -0.41,-0.13 -0.68,-0.3 -0.84,-0.51 -0.16,-0.21 -0.24,-0.44 -0.24,-0.7l0 -36.13c0,-0.26 0.08,-0.5 0.24,-0.7 0.16,-0.21 0.43,-0.39 0.84,-0.53 0.38,-0.15 0.91,-0.26 1.54,-0.35 0.66,-0.08 1.49,-0.12 2.48,-0.12 1,0 1.83,0.04 2.48,0.12 0.64,0.09 1.16,0.2 1.55,0.35 0.4,0.14 0.68,0.32 0.83,0.53 0.17,0.2 0.25,0.44 0.25,0.7l0 36.13zm0.83 -48.5c0,2.06 -0.41,3.47 -1.26,4.26 -0.84,0.79 -2.39,1.18 -4.68,1.18 -2.3,0 -3.86,-0.38 -4.65,-1.14 -0.8,-0.76 -1.2,-2.13 -1.2,-4.09 0,-2.07 0.41,-3.49 1.24,-4.3 0.82,-0.78 2.38,-1.19 4.7,-1.19 2.26,0 3.82,0.39 4.63,1.17 0.82,0.76 1.22,2.13 1.22,4.11zm41.92 14.82c0,1.3 -0.15,2.26 -0.45,2.88 -0.29,0.62 -0.65,0.94 -1.1,0.94l-4.24 0c0.59,0.65 1.01,1.39 1.27,2.2 0.26,0.83 0.39,1.69 0.39,2.58 0,2.1 -0.36,3.97 -1.06,5.6 -0.7,1.64 -1.71,3.02 -3.03,4.14 -1.3,1.12 -2.89,1.97 -4.73,2.55 -1.86,0.58 -3.92,0.87 -6.19,0.87 -1.16,0 -2.27,-0.14 -3.32,-0.43 -1.07,-0.28 -1.87,-0.61 -2.44,-0.98 -0.33,0.34 -0.62,0.76 -0.87,1.26 -0.26,0.48 -0.38,1.02 -0.38,1.62 0,0.78 0.34,1.44 1.03,1.93 0.68,0.5 1.65,0.78 2.9,0.83l8.8 0.32c2.05,0.09 3.89,0.38 5.49,0.87 1.61,0.5 2.97,1.21 4.06,2.12 1.09,0.9 1.94,2 2.52,3.25 0.58,1.28 0.87,2.73 0.87,4.35 0,1.79 -0.4,3.46 -1.18,5.04 -0.79,1.59 -1.96,2.96 -3.53,4.12 -1.57,1.17 -3.54,2.08 -5.91,2.76 -2.36,0.68 -5.12,1.01 -8.29,1.01 -3.07,0 -5.7,-0.25 -7.89,-0.74 -2.17,-0.48 -3.95,-1.16 -5.34,-2.02 -1.4,-0.87 -2.41,-1.89 -3.04,-3.1 -0.64,-1.2 -0.96,-2.52 -0.96,-3.96 0,-0.88 0.11,-1.74 0.35,-2.54 0.23,-0.82 0.56,-1.59 1.01,-2.34 0.44,-0.73 0.99,-1.45 1.64,-2.12 0.66,-0.68 1.39,-1.33 2.23,-1.95 -1.16,-0.62 -2.06,-1.47 -2.7,-2.53 -0.63,-1.07 -0.95,-2.25 -0.95,-3.52 0,-1.59 0.37,-3.04 1.09,-4.36 0.74,-1.31 1.69,-2.49 2.85,-3.56 -0.95,-0.94 -1.7,-2.07 -2.27,-3.39 -0.56,-1.33 -0.85,-2.97 -0.85,-4.94 0,-2.12 0.37,-4 1.12,-5.66 0.73,-1.66 1.77,-3.06 3.1,-4.21 1.31,-1.15 2.9,-2.02 4.73,-2.63 1.84,-0.61 3.88,-0.91 6.09,-0.91 1.14,0 2.23,0.07 3.27,0.19 1.03,0.14 2,0.32 2.89,0.56l11.47 0c0.46,0 0.83,0.3 1.13,0.9 0.27,0.59 0.42,1.59 0.42,3zm-13.1 8.57c0,-1.94 -0.54,-3.46 -1.62,-4.54 -1.08,-1.08 -2.61,-1.62 -4.58,-1.62 -1,0 -1.89,0.17 -2.63,0.51 -0.77,0.33 -1.39,0.79 -1.9,1.37 -0.5,0.58 -0.87,1.26 -1.11,2.04 -0.25,0.77 -0.36,1.57 -0.36,2.4 0,1.85 0.54,3.3 1.62,4.36 1.08,1.07 2.58,1.61 4.5,1.61 1.02,0 1.92,-0.17 2.67,-0.48 0.76,-0.34 1.39,-0.78 1.88,-1.35 0.52,-0.56 0.89,-1.22 1.15,-1.96 0.25,-0.75 0.38,-1.53 0.38,-2.34zm2.39 28.86c0,-1.21 -0.48,-2.15 -1.45,-2.79 -0.98,-0.65 -2.31,-1.01 -4.02,-1.05l-7.26 -0.2c-0.69,0.51 -1.26,1.01 -1.68,1.48 -0.43,0.47 -0.76,0.91 -1.02,1.35 -0.25,0.43 -0.42,0.85 -0.5,1.25 -0.08,0.4 -0.12,0.83 -0.12,1.26 0,1.34 0.67,2.36 2.04,3.07 1.37,0.71 3.3,1.05 5.78,1.05 1.55,0 2.85,-0.15 3.9,-0.47 1.05,-0.3 1.9,-0.72 2.55,-1.23 0.65,-0.51 1.1,-1.08 1.38,-1.72 0.26,-0.63 0.4,-1.3 0.4,-2zm52.07 -3.75c0,0.26 -0.08,0.49 -0.25,0.7 -0.15,0.21 -0.43,0.38 -0.8,0.51 -0.39,0.13 -0.91,0.24 -1.58,0.31 -0.66,0.07 -1.48,0.1 -2.45,0.1 -1.01,0 -1.84,-0.03 -2.5,-0.1 -0.67,-0.07 -1.19,-0.18 -1.58,-0.31 -0.38,-0.13 -0.65,-0.3 -0.81,-0.51 -0.16,-0.21 -0.24,-0.44 -0.24,-0.7l0 -20.64c0,-1.76 -0.13,-3.14 -0.39,-4.14 -0.25,-1.01 -0.62,-1.87 -1.11,-2.57 -0.48,-0.72 -1.12,-1.28 -1.88,-1.68 -0.78,-0.39 -1.66,-0.58 -2.69,-0.58 -1.3,0 -2.6,0.47 -3.93,1.43 -1.31,0.94 -2.7,2.32 -4.12,4.12l0 24.06c0,0.26 -0.08,0.49 -0.25,0.7 -0.15,0.21 -0.43,0.38 -0.83,0.51 -0.39,0.13 -0.91,0.24 -1.55,0.31 -0.65,0.07 -1.48,0.1 -2.48,0.1 -1,0 -1.83,-0.03 -2.48,-0.1 -0.63,-0.07 -1.16,-0.18 -1.55,-0.31 -0.4,-0.13 -0.67,-0.3 -0.83,-0.51 -0.16,-0.21 -0.25,-0.44 -0.25,-0.7l0 -53.36c0,-0.28 0.09,-0.51 0.25,-0.73 0.16,-0.21 0.43,-0.41 0.83,-0.54 0.39,-0.16 0.92,-0.27 1.55,-0.35 0.65,-0.08 1.48,-0.12 2.48,-0.12 1,0 1.83,0.04 2.48,0.12 0.64,0.08 1.16,0.19 1.55,0.35 0.4,0.13 0.68,0.33 0.83,0.54 0.17,0.22 0.25,0.47 0.25,0.73l0 20.01c1.76,-1.73 3.54,-3.01 5.37,-3.87 1.83,-0.85 3.72,-1.28 5.7,-1.28 2.46,0 4.54,0.41 6.23,1.22 1.69,0.8 3.04,1.93 4.1,3.32 1.03,1.42 1.78,3.05 2.24,4.93 0.46,1.88 0.69,4.17 0.69,6.84l0 22.19zm30.67 -3.56c0,1.19 -0.07,2.1 -0.22,2.74 -0.15,0.64 -0.35,1.08 -0.59,1.33 -0.24,0.26 -0.6,0.5 -1.07,0.69 -0.49,0.21 -1.04,0.39 -1.67,0.53 -0.63,0.15 -1.32,0.26 -2.07,0.34 -0.75,0.09 -1.49,0.13 -2.25,0.13 -2.02,0 -3.78,-0.27 -5.28,-0.78 -1.48,-0.51 -2.71,-1.3 -3.69,-2.37 -0.97,-1.06 -1.69,-2.4 -2.15,-4.04 -0.46,-1.62 -0.69,-3.54 -0.69,-5.76l0 -18.53 -4.39 0c-0.51,0 -0.91,-0.32 -1.17,-0.95 -0.28,-0.64 -0.42,-1.71 -0.42,-3.2 0,-0.79 0.03,-1.45 0.1,-1.99 0.07,-0.54 0.18,-0.97 0.32,-1.29 0.12,-0.31 0.3,-0.53 0.51,-0.66 0.19,-0.14 0.44,-0.21 0.7,-0.21l4.35 0 0 -8.1c0,-0.26 0.07,-0.51 0.22,-0.73 0.15,-0.21 0.43,-0.39 0.82,-0.54 0.39,-0.16 0.93,-0.27 1.59,-0.33 0.66,-0.07 1.48,-0.1 2.46,-0.1 1,0 1.83,0.03 2.49,0.1 0.67,0.06 1.2,0.17 1.58,0.33 0.38,0.15 0.65,0.33 0.81,0.54 0.16,0.22 0.24,0.47 0.24,0.73l0 8.1 7.85 0c0.28,0 0.51,0.07 0.71,0.21 0.21,0.13 0.37,0.35 0.51,0.66 0.14,0.32 0.24,0.75 0.3,1.29 0.07,0.54 0.1,1.2 0.1,1.99 0,1.49 -0.14,2.56 -0.4,3.2 -0.28,0.63 -0.66,0.95 -1.18,0.95l-7.89 0 0 17c0,1.98 0.31,3.46 0.93,4.44 0.63,0.98 1.73,1.48 3.32,1.48 0.54,0 1.03,-0.04 1.46,-0.14 0.43,-0.09 0.81,-0.2 1.15,-0.33 0.34,-0.11 0.62,-0.22 0.85,-0.32 0.23,-0.09 0.45,-0.13 0.63,-0.13 0.16,0 0.32,0.04 0.47,0.13 0.14,0.1 0.26,0.28 0.34,0.57 0.07,0.28 0.16,0.67 0.22,1.15 0.07,0.5 0.1,1.11 0.1,1.87z"/>
    <path class="fil0" d="M739 51.41c0,2.05 -0.39,3.86 -1.16,5.44 -0.77,1.56 -1.86,2.86 -3.27,3.93 -1.41,1.05 -3.07,1.84 -5,2.36 -1.92,0.53 -4,0.79 -6.24,0.79 -1.36,0 -2.66,-0.09 -3.89,-0.3 -1.23,-0.21 -2.32,-0.47 -3.31,-0.79 -0.97,-0.3 -1.78,-0.62 -2.43,-0.96 -0.65,-0.33 -1.12,-0.63 -1.41,-0.92 -0.31,-0.29 -0.54,-0.74 -0.7,-1.35 -0.16,-0.59 -0.25,-1.49 -0.25,-2.68 0,-0.78 0.03,-1.4 0.09,-1.87 0.05,-0.47 0.14,-0.86 0.23,-1.13 0.11,-0.28 0.25,-0.47 0.42,-0.57 0.15,-0.1 0.36,-0.14 0.61,-0.14 0.29,0 0.73,0.17 1.31,0.51 0.58,0.35 1.3,0.72 2.18,1.12 0.85,0.42 1.86,0.81 3.01,1.15 1.15,0.36 2.47,0.54 3.92,0.54 0.91,0 1.74,-0.1 2.45,-0.29 0.72,-0.18 1.34,-0.46 1.87,-0.82 0.52,-0.34 0.93,-0.79 1.2,-1.34 0.27,-0.54 0.4,-1.16 0.4,-1.87 0,-0.81 -0.25,-1.51 -0.74,-2.09 -0.52,-0.58 -1.18,-1.09 -2,-1.52 -0.83,-0.43 -1.77,-0.83 -2.81,-1.22 -1.03,-0.37 -2.11,-0.79 -3.21,-1.26 -1.09,-0.45 -2.17,-0.98 -3.21,-1.57 -1.04,-0.6 -1.98,-1.32 -2.81,-2.19 -0.82,-0.86 -1.48,-1.91 -1.99,-3.12 -0.5,-1.21 -0.75,-2.68 -0.75,-4.38 0,-1.73 0.35,-3.31 1.03,-4.76 0.67,-1.44 1.64,-2.69 2.92,-3.71 1.28,-1.03 2.83,-1.83 4.66,-2.4 1.84,-0.57 3.89,-0.84 6.17,-0.84 1.15,0 2.25,0.08 3.32,0.23 1.07,0.17 2.05,0.38 2.91,0.61 0.87,0.25 1.61,0.5 2.2,0.79 0.6,0.28 1.03,0.53 1.29,0.72 0.26,0.21 0.44,0.4 0.55,0.61 0.1,0.21 0.18,0.44 0.24,0.73 0.05,0.28 0.11,0.64 0.15,1.05 0.04,0.42 0.06,0.95 0.06,1.57 0,0.73 -0.02,1.33 -0.06,1.78 -0.04,0.46 -0.11,0.83 -0.21,1.1 -0.09,0.27 -0.22,0.45 -0.38,0.55 -0.17,0.1 -0.37,0.14 -0.57,0.14 -0.25,0 -0.64,-0.14 -1.15,-0.43 -0.51,-0.28 -1.16,-0.58 -1.94,-0.9 -0.77,-0.32 -1.67,-0.62 -2.68,-0.9 -1.03,-0.29 -2.19,-0.43 -3.49,-0.43 -0.93,0 -1.73,0.1 -2.41,0.28 -0.68,0.19 -1.23,0.47 -1.67,0.82 -0.43,0.34 -0.77,0.76 -0.97,1.23 -0.22,0.47 -0.34,0.98 -0.34,1.51 0,0.84 0.27,1.55 0.78,2.11 0.51,0.57 1.19,1.07 2.03,1.5 0.83,0.43 1.8,0.84 2.87,1.22 1.06,0.37 2.16,0.79 3.25,1.23 1.09,0.44 2.19,0.97 3.25,1.56 1.07,0.6 2.04,1.33 2.87,2.19 0.84,0.87 1.52,1.89 2.03,3.1 0.52,1.2 0.78,2.63 0.78,4.28zm-32.93 4.47c0,0.7 -0.01,1.28 -0.05,1.77 -0.05,0.47 -0.1,0.87 -0.17,1.2 -0.07,0.32 -0.15,0.58 -0.25,0.79 -0.1,0.21 -0.3,0.46 -0.62,0.78 -0.33,0.3 -0.89,0.69 -1.66,1.13 -0.79,0.45 -1.68,0.85 -2.69,1.21 -0.99,0.34 -2.07,0.63 -3.25,0.84 -1.18,0.22 -2.4,0.33 -3.64,0.33 -2.78,0 -5.25,-0.43 -7.39,-1.3 -2.16,-0.86 -3.96,-2.14 -5.43,-3.83 -1.45,-1.69 -2.56,-3.77 -3.29,-6.2 -0.75,-2.44 -1.12,-5.22 -1.12,-8.36 0,-3.63 0.45,-6.77 1.35,-9.4 0.92,-2.65 2.18,-4.83 3.8,-6.56 1.62,-1.73 3.54,-3.02 5.75,-3.86 2.22,-0.85 4.65,-1.26 7.31,-1.26 1.08,0 2.13,0.09 3.19,0.29 1.03,0.18 2,0.44 2.92,0.76 0.9,0.33 1.71,0.69 2.42,1.09 0.72,0.42 1.23,0.76 1.52,1.07 0.3,0.29 0.51,0.54 0.64,0.75 0.11,0.2 0.2,0.47 0.27,0.78 0.07,0.34 0.13,0.74 0.17,1.21 0.04,0.48 0.05,1.05 0.05,1.73 0,1.58 -0.12,2.68 -0.4,3.32 -0.27,0.64 -0.62,0.96 -1.05,0.96 -0.46,0 -0.95,-0.2 -1.47,-0.57 -0.51,-0.38 -1.12,-0.8 -1.82,-1.26 -0.69,-0.46 -1.54,-0.89 -2.51,-1.26 -0.97,-0.37 -2.13,-0.57 -3.49,-0.57 -2.65,0 -4.67,1.03 -6.09,3.06 -1.39,2.05 -2.1,5.04 -2.1,8.98 0,1.94 0.18,3.66 0.53,5.15 0.36,1.48 0.87,2.73 1.56,3.73 0.69,0.99 1.55,1.75 2.59,2.25 1.05,0.5 2.25,0.75 3.64,0.75 1.4,0 2.62,-0.21 3.63,-0.64 1.01,-0.41 1.89,-0.88 2.65,-1.4 0.75,-0.51 1.39,-0.98 1.91,-1.39 0.51,-0.43 0.94,-0.64 1.29,-0.64 0.25,0 0.44,0.07 0.61,0.21 0.16,0.13 0.29,0.39 0.39,0.74 0.09,0.38 0.16,0.85 0.22,1.42 0.05,0.56 0.08,1.3 0.08,2.2zm-36.83 -42.65c0,2.07 -0.41,3.48 -1.26,4.27 -0.84,0.78 -2.39,1.17 -4.68,1.17 -2.29,0 -3.86,-0.37 -4.65,-1.13 -0.8,-0.76 -1.2,-2.13 -1.2,-4.1 0,-2.06 0.41,-3.49 1.24,-4.29 0.82,-0.79 2.38,-1.19 4.7,-1.19 2.27,0 3.82,0.39 4.63,1.16 0.82,0.76 1.22,2.13 1.22,4.11zm-27.16 19.15l0 8.99 0 8c0,1.98 0.31,3.46 0.93,4.45 0.63,0.98 1.73,1.48 3.32,1.48 0.54,0 1.03,-0.05 1.46,-0.14 0.43,-0.1 0.81,-0.21 1.15,-0.33 0.34,-0.12 0.62,-0.23 0.85,-0.32 0.23,-0.1 0.45,-0.14 0.63,-0.14 0.16,0 0.32,0.04 0.47,0.14 0.14,0.09 0.26,0.27 0.34,0.56 0.07,0.28 0.16,0.67 0.23,1.15 0.06,0.5 0.09,1.11 0.09,1.87 0,1.19 -0.07,2.09 -0.21,2.7 -0.12,0.61 -0.31,1.05 -0.56,1.33 -0.24,0.29 -0.61,0.54 -1.1,0.73 -0.48,0.21 -1.05,0.39 -1.68,0.53 -0.63,0.15 -1.32,0.26 -2.07,0.34 -0.74,0.09 -1.49,0.13 -2.25,0.13 -2.02,0 -3.78,-0.26 -5.28,-0.78 -1.48,-0.51 -2.71,-1.3 -3.69,-2.36 -0.97,-1.07 -1.69,-2.41 -2.15,-4.04 -0.45,-1.62 -0.69,-3.55 -0.69,-5.76l0 -18.53 -4.39 0c-0.51,0 -0.91,-0.32 -1.17,-0.96 -0.28,-0.64 -0.42,-1.7 -0.42,-3.2 0,-0.79 0.03,-1.45 0.1,-1.99 0.07,-0.54 0.18,-0.97 0.32,-1.29 0.12,-0.3 0.3,-0.52 0.51,-0.66 0.19,-0.14 0.44,-0.21 0.7,-0.21l4.35 0 0 -8.1c0,-0.26 0.07,-0.51 0.22,-0.73 0.15,-0.21 0.43,-0.39 0.82,-0.54 0.39,-0.15 0.93,-0.26 1.59,-0.33 0.66,-0.07 1.48,-0.1 2.46,-0.1 1,0 1.83,0.03 2.49,0.1 0.67,0.07 1.2,0.18 1.58,0.33 0.38,0.15 0.65,0.33 0.81,0.54 0.16,0.22 0.24,0.47 0.24,0.73l0 5.11 0 2.99 9.79 0c0.27,0 0.51,0.07 0.71,0.21 0.2,0.14 0.38,0.36 0.51,0.66 0.13,0.32 0.25,0.75 0.32,1.29 0.07,0.54 0.1,1.2 0.1,1.99 0,1.5 -0.15,2.56 -0.42,3.2 -0.27,0.63 -0.66,0.96 -1.17,0.96l-9.84 0zm23.38 -8.31c1.12,0 1.93,0.25 2.37,0.74 0.44,0.48 0.66,1.18 0.66,2.1l0 34.74c0,0.26 -0.08,0.5 -0.25,0.7 -0.15,0.21 -0.42,0.38 -0.8,0.52 -0.39,0.12 -0.91,0.23 -1.58,0.3 -0.66,0.07 -1.48,0.1 -2.45,0.1 -1.01,0 -1.84,-0.03 -2.5,-0.1 -0.67,-0.07 -1.19,-0.18 -1.58,-0.3 -0.37,-0.14 -0.65,-0.31 -0.8,-0.52 -0.17,-0.2 -0.25,-0.44 -0.25,-0.7l0 -20.28 0 -8.99 0 -8.31 7.18 0zm-54.16 38.95l-4.39 12.79c-0.24,0.68 -0.9,1.16 -1.97,1.47 -1.08,0.29 -2.66,0.44 -4.74,0.44 -1.08,0 -1.95,-0.04 -2.59,-0.14 -0.65,-0.1 -1.13,-0.25 -1.46,-0.47 -0.32,-0.22 -0.5,-0.49 -0.53,-0.8 -0.03,-0.34 0.06,-0.72 0.25,-1.18l4.82 -12.11c-0.35,-0.17 -0.67,-0.42 -0.94,-0.75 -0.29,-0.34 -0.5,-0.7 -0.64,-1.08l-12.42 -33.27c-0.34,-0.94 -0.52,-1.68 -0.52,-2.17 0,-0.5 0.16,-0.89 0.48,-1.18 0.32,-0.28 0.87,-0.47 1.64,-0.58 0.77,-0.11 1.78,-0.17 3.05,-0.17 1.15,0 2.07,0.02 2.74,0.06 0.68,0.04 1.21,0.15 1.58,0.3 0.38,0.17 0.67,0.42 0.85,0.76 0.19,0.34 0.37,0.82 0.56,1.44l8.52 24.22 0.12 0 7.72 -24.7c0.17,-0.71 0.38,-1.18 0.64,-1.41 0.25,-0.22 0.68,-0.39 1.27,-0.5 0.6,-0.11 1.65,-0.17 3.13,-0.17 1.18,0 2.15,0.06 2.91,0.17 0.77,0.11 1.34,0.3 1.71,0.61 0.36,0.29 0.54,0.69 0.54,1.19 0,0.5 -0.09,1.09 -0.31,1.77l-12.02 35.46zm-31.1 -1.37c0,0.26 -0.08,0.5 -0.25,0.7 -0.15,0.21 -0.43,0.38 -0.83,0.52 -0.39,0.12 -0.91,0.23 -1.55,0.3 -0.65,0.07 -1.48,0.1 -2.48,0.1 -0.99,0 -1.82,-0.03 -2.47,-0.1 -0.64,-0.07 -1.17,-0.18 -1.55,-0.3 -0.4,-0.14 -0.68,-0.31 -0.83,-0.52 -0.17,-0.2 -0.25,-0.44 -0.25,-0.7l0 -53.36c0,-0.28 0.08,-0.51 0.25,-0.73 0.15,-0.21 0.43,-0.4 0.83,-0.54 0.38,-0.15 0.91,-0.26 1.55,-0.35 0.65,-0.08 1.48,-0.12 2.47,-0.12 1,0 1.83,0.04 2.48,0.12 0.64,0.09 1.16,0.2 1.55,0.35 0.4,0.14 0.68,0.33 0.83,0.54 0.17,0.22 0.25,0.45 0.25,0.73l0 53.36zm-30.45 -15.41l-3.89 0c-1.64,0 -3.04,0.13 -4.2,0.36 -1.17,0.25 -2.11,0.61 -2.84,1.11 -0.74,0.49 -1.26,1.07 -1.59,1.76 -0.35,0.69 -0.52,1.48 -0.52,2.37 0,1.52 0.49,2.71 1.44,3.57 0.96,0.87 2.29,1.3 3.99,1.3 1.43,0 2.74,-0.36 3.94,-1.1 1.21,-0.73 2.43,-1.79 3.67,-3.21l0 -6.16zm10.05 15.53c0,0.38 -0.14,0.67 -0.4,0.89 -0.28,0.22 -0.71,0.37 -1.29,0.47 -0.58,0.1 -1.44,0.14 -2.59,0.14 -1.21,0 -2.1,-0.04 -2.65,-0.14 -0.56,-0.1 -0.96,-0.25 -1.18,-0.47 -0.24,-0.22 -0.35,-0.51 -0.35,-0.89l0 -2.88c-1.49,1.6 -3.18,2.83 -5.09,3.71 -1.9,0.89 -4.01,1.33 -6.34,1.33 -1.91,0 -3.68,-0.25 -5.29,-0.74 -1.6,-0.5 -2.99,-1.25 -4.16,-2.23 -1.18,-1 -2.09,-2.22 -2.74,-3.67 -0.65,-1.47 -0.97,-3.17 -0.97,-5.11 0,-2.12 0.41,-3.94 1.23,-5.49 0.83,-1.57 2.06,-2.84 3.7,-3.86 1.63,-1.01 3.65,-1.76 6.09,-2.25 2.42,-0.48 5.24,-0.73 8.45,-0.73l3.53 0 0 -2.19c0,-1.13 -0.11,-2.13 -0.34,-2.99 -0.23,-0.84 -0.61,-1.56 -1.14,-2.13 -0.52,-0.57 -1.22,-0.98 -2.1,-1.26 -0.87,-0.26 -1.97,-0.4 -3.26,-0.4 -1.7,0 -3.22,0.2 -4.55,0.57 -1.34,0.37 -2.52,0.8 -3.54,1.26 -1.03,0.45 -1.88,0.88 -2.58,1.26 -0.69,0.37 -1.24,0.56 -1.67,0.56 -0.31,0 -0.57,-0.09 -0.79,-0.27 -0.24,-0.2 -0.43,-0.47 -0.57,-0.82 -0.15,-0.34 -0.26,-0.79 -0.34,-1.3 -0.09,-0.51 -0.13,-1.08 -0.13,-1.69 0,-0.84 0.07,-1.51 0.21,-1.99 0.12,-0.49 0.39,-0.92 0.76,-1.32 0.39,-0.38 1.04,-0.81 1.99,-1.28 0.94,-0.47 2.05,-0.92 3.33,-1.32 1.27,-0.41 2.65,-0.75 4.15,-1 1.51,-0.26 3.06,-0.38 4.65,-0.38 2.84,0 5.26,0.27 7.28,0.83 2,0.55 3.67,1.41 4.95,2.56 1.3,1.15 2.26,2.63 2.85,4.44 0.6,1.8 0.89,3.96 0.89,6.44l0 24.34zm-40.83 -0.12c0,0.26 -0.08,0.5 -0.25,0.7 -0.15,0.21 -0.43,0.38 -0.8,0.52 -0.39,0.12 -0.91,0.23 -1.58,0.3 -0.66,0.07 -1.48,0.1 -2.45,0.1 -1.01,0 -1.84,-0.03 -2.5,-0.1 -0.67,-0.07 -1.19,-0.18 -1.58,-0.3 -0.38,-0.14 -0.65,-0.31 -0.81,-0.52 -0.16,-0.2 -0.24,-0.44 -0.24,-0.7l0 -20.64c0,-1.76 -0.13,-3.14 -0.39,-4.14 -0.25,-1.01 -0.62,-1.86 -1.11,-2.57 -0.48,-0.72 -1.12,-1.27 -1.88,-1.68 -0.78,-0.38 -1.66,-0.58 -2.69,-0.58 -1.3,0 -2.6,0.47 -3.93,1.43 -1.31,0.94 -2.7,2.32 -4.12,4.12l0 24.06c0,0.26 -0.09,0.5 -0.25,0.7 -0.15,0.21 -0.43,0.38 -0.83,0.52 -0.39,0.12 -0.91,0.23 -1.55,0.3 -0.65,0.07 -1.48,0.1 -2.48,0.1 -1,0 -1.83,-0.03 -2.48,-0.1 -0.63,-0.07 -1.16,-0.18 -1.55,-0.3 -0.4,-0.14 -0.67,-0.31 -0.83,-0.52 -0.16,-0.2 -0.25,-0.44 -0.25,-0.7l0 -36.21c0,-0.26 0.07,-0.5 0.21,-0.7 0.13,-0.21 0.38,-0.38 0.72,-0.52 0.36,-0.12 0.8,-0.23 1.36,-0.3 0.55,-0.07 1.26,-0.1 2.09,-0.1 0.87,0 1.58,0.03 2.14,0.1 0.57,0.07 1.01,0.18 1.33,0.3 0.31,0.14 0.53,0.31 0.67,0.52 0.13,0.2 0.2,0.44 0.2,0.7l0 4.18c2,-2.16 4.03,-3.76 6.11,-4.84 2.06,-1.08 4.22,-1.62 6.46,-1.62 2.47,0 4.54,0.4 6.23,1.22 1.69,0.8 3.04,1.91 4.1,3.3 1.03,1.39 1.78,3.02 2.24,4.89 0.45,1.87 0.69,4.11 0.69,6.73l0 22.35zm-65.4 -41.14l-0.04 0 -7.31 22.33 14.73 0 -7.38 -22.33zm24.08 38.54c0.32,0.97 0.53,1.74 0.61,2.31 0.09,0.57 -0.02,0.99 -0.31,1.29 -0.31,0.27 -0.83,0.45 -1.6,0.52 -0.74,0.07 -1.8,0.1 -3.11,0.1 -1.38,0 -2.46,-0.02 -3.23,-0.06 -0.77,-0.04 -1.35,-0.12 -1.77,-0.25 -0.4,-0.12 -0.67,-0.29 -0.84,-0.51 -0.17,-0.21 -0.31,-0.5 -0.4,-0.84l-3.45 -10.55 -19.79 0 -3.31 10.26c-0.11,0.38 -0.25,0.7 -0.43,0.95 -0.16,0.27 -0.46,0.46 -0.84,0.61 -0.39,0.15 -0.94,0.25 -1.66,0.31 -0.72,0.05 -1.66,0.08 -2.83,0.08 -1.24,0 -2.21,-0.04 -2.92,-0.13 -0.7,-0.08 -1.19,-0.27 -1.45,-0.58 -0.28,-0.32 -0.37,-0.76 -0.29,-1.33 0.08,-0.56 0.29,-1.31 0.61,-2.27l16.16 -46.57c0.16,-0.46 0.35,-0.83 0.57,-1.11 0.21,-0.29 0.55,-0.5 1.03,-0.65 0.48,-0.15 1.13,-0.25 1.97,-0.29 0.83,-0.04 1.94,-0.05 3.33,-0.05 1.59,0 2.86,0.01 3.8,0.05 0.96,0.04 1.69,0.14 2.22,0.29 0.52,0.15 0.9,0.38 1.13,0.67 0.22,0.3 0.43,0.7 0.58,1.21l16.22 46.54z"/>
   </g>
   <g>
    <polygon class="fil1" points="17.1,114.49 125.27,114.49 125.27,122.1 17.1,122.1 "/>
    <polygon class="fil1" points="613.73,114.49 721.9,114.49 721.9,122.1 613.73,122.1 "/>
   </g>
  </g>
 </g>
</svg>
